<mxfile host="65bd71144e">
    <diagram name="minitest-Fond-ordino" id="noPzHT-fF5VlBi1IeAz5">
        <mxGraphModel dx="864" dy="374" grid="1" gridSize="10" guides="1" tooltips="1" connect="1" arrows="1" fold="1" page="1" pageScale="1" pageWidth="827" pageHeight="1169" math="0" shadow="0">
            <root>
                <mxCell id="qlHTJahom0Wcb1mGQkCV-0"/>
                <mxCell id="qlHTJahom0Wcb1mGQkCV-1" parent="qlHTJahom0Wcb1mGQkCV-0"/>
                <mxCell id="qlHTJahom0Wcb1mGQkCV-2" value="" style="ellipse;whiteSpace=wrap;html=1;" vertex="1" parent="qlHTJahom0Wcb1mGQkCV-1">
                    <mxGeometry x="340" y="520" width="120" height="40" as="geometry"/>
                </mxCell>
                <mxCell id="qlHTJahom0Wcb1mGQkCV-3" style="edgeStyle=none;html=1;exitX=0.5;exitY=1;exitDx=0;exitDy=0;" edge="1" parent="qlHTJahom0Wcb1mGQkCV-1" source="qlHTJahom0Wcb1mGQkCV-4" target="qlHTJahom0Wcb1mGQkCV-6">
                    <mxGeometry relative="1" as="geometry"/>
                </mxCell>
                <mxCell id="qlHTJahom0Wcb1mGQkCV-4" value="" style="ellipse;whiteSpace=wrap;html=1;" vertex="1" parent="qlHTJahom0Wcb1mGQkCV-1">
                    <mxGeometry x="340" y="40" width="120" height="40" as="geometry"/>
                </mxCell>
                <mxCell id="qlHTJahom0Wcb1mGQkCV-5" style="edgeStyle=none;html=1;exitX=0.5;exitY=1;exitDx=0;exitDy=0;" edge="1" parent="qlHTJahom0Wcb1mGQkCV-1" source="qlHTJahom0Wcb1mGQkCV-6" target="qlHTJahom0Wcb1mGQkCV-8">
                    <mxGeometry relative="1" as="geometry"/>
                </mxCell>
                <mxCell id="qlHTJahom0Wcb1mGQkCV-6" value="" style="shape=parallelogram;perimeter=parallelogramPerimeter;whiteSpace=wrap;html=1;fixedSize=1;" vertex="1" parent="qlHTJahom0Wcb1mGQkCV-1">
                    <mxGeometry x="260" y="120" width="280" height="40" as="geometry"/>
                </mxCell>
                <mxCell id="qlHTJahom0Wcb1mGQkCV-7" style="edgeStyle=none;html=1;exitX=0.5;exitY=1;exitDx=0;exitDy=0;entryX=0.5;entryY=0;entryDx=0;entryDy=0;" edge="1" parent="qlHTJahom0Wcb1mGQkCV-1" source="qlHTJahom0Wcb1mGQkCV-8" target="qlHTJahom0Wcb1mGQkCV-13">
                    <mxGeometry relative="1" as="geometry"/>
                </mxCell>
                <mxCell id="qlHTJahom0Wcb1mGQkCV-8" value="" style="shape=parallelogram;perimeter=parallelogramPerimeter;whiteSpace=wrap;html=1;fixedSize=1;" vertex="1" parent="qlHTJahom0Wcb1mGQkCV-1">
                    <mxGeometry x="335" y="200" width="130" height="40" as="geometry"/>
                </mxCell>
                <mxCell id="qlHTJahom0Wcb1mGQkCV-9" style="edgeStyle=none;html=1;exitX=1;exitY=0.5;exitDx=0;exitDy=0;entryX=0.5;entryY=0;entryDx=0;entryDy=0;" edge="1" parent="qlHTJahom0Wcb1mGQkCV-1" source="qlHTJahom0Wcb1mGQkCV-13" target="qlHTJahom0Wcb1mGQkCV-15">
                    <mxGeometry relative="1" as="geometry">
                        <Array as="points">
                            <mxPoint x="640" y="320"/>
                        </Array>
                    </mxGeometry>
                </mxCell>
                <mxCell id="qlHTJahom0Wcb1mGQkCV-11" style="edgeStyle=none;html=1;exitX=0;exitY=0.5;exitDx=0;exitDy=0;entryX=0.5;entryY=0;entryDx=0;entryDy=0;" edge="1" parent="qlHTJahom0Wcb1mGQkCV-1" source="qlHTJahom0Wcb1mGQkCV-13" target="qlHTJahom0Wcb1mGQkCV-17">
                    <mxGeometry relative="1" as="geometry">
                        <Array as="points">
                            <mxPoint x="165" y="320"/>
                        </Array>
                    </mxGeometry>
                </mxCell>
                <mxCell id="qlHTJahom0Wcb1mGQkCV-13" value="" style="rhombus;whiteSpace=wrap;html=1;" vertex="1" parent="qlHTJahom0Wcb1mGQkCV-1">
                    <mxGeometry x="327.5" y="280" width="145" height="80" as="geometry"/>
                </mxCell>
                <mxCell id="qlHTJahom0Wcb1mGQkCV-14" style="edgeStyle=none;html=1;exitX=0.5;exitY=1;exitDx=0;exitDy=0;entryX=1;entryY=0.5;entryDx=0;entryDy=0;" edge="1" parent="qlHTJahom0Wcb1mGQkCV-1" source="qlHTJahom0Wcb1mGQkCV-15" target="qlHTJahom0Wcb1mGQkCV-2">
                    <mxGeometry relative="1" as="geometry">
                        <Array as="points">
                            <mxPoint x="640" y="540"/>
                        </Array>
                    </mxGeometry>
                </mxCell>
                <mxCell id="qlHTJahom0Wcb1mGQkCV-15" value="" style="shape=parallelogram;perimeter=parallelogramPerimeter;whiteSpace=wrap;html=1;fixedSize=1;" vertex="1" parent="qlHTJahom0Wcb1mGQkCV-1">
                    <mxGeometry x="500" y="400" width="280" height="60" as="geometry"/>
                </mxCell>
                <mxCell id="qlHTJahom0Wcb1mGQkCV-16" style="edgeStyle=none;html=1;exitX=0;exitY=0.5;exitDx=0;exitDy=0;entryX=0;entryY=0.25;entryDx=0;entryDy=0;" edge="1" parent="qlHTJahom0Wcb1mGQkCV-1" source="qlHTJahom0Wcb1mGQkCV-17" target="qlHTJahom0Wcb1mGQkCV-6">
                    <mxGeometry relative="1" as="geometry">
                        <Array as="points">
                            <mxPoint x="20" y="130"/>
                        </Array>
                    </mxGeometry>
                </mxCell>
                <mxCell id="qlHTJahom0Wcb1mGQkCV-17" value="" style="shape=parallelogram;perimeter=parallelogramPerimeter;whiteSpace=wrap;html=1;fixedSize=1;" vertex="1" parent="qlHTJahom0Wcb1mGQkCV-1">
                    <mxGeometry x="10" y="400" width="310" height="60" as="geometry"/>
                </mxCell>
            </root>
        </mxGraphModel>
    </diagram>
    <diagram id="vtnHUHgtMc6US-gQUyrY" name="minitest-ordino-aFaire">
        <mxGraphModel dx="864" dy="374" grid="1" gridSize="10" guides="1" tooltips="1" connect="1" arrows="1" fold="1" page="1" pageScale="1" pageWidth="827" pageHeight="1169" math="0" shadow="0">
            <root>
                <mxCell id="0"/>
                <mxCell id="1" parent="0"/>
                <mxCell id="2" value="FIN" style="ellipse;whiteSpace=wrap;html=1;" vertex="1" parent="1">
                    <mxGeometry x="340" y="520" width="120" height="40" as="geometry"/>
                </mxCell>
                <mxCell id="17" style="edgeStyle=none;html=1;exitX=0.5;exitY=1;exitDx=0;exitDy=0;" edge="1" parent="1" source="3" target="4">
                    <mxGeometry relative="1" as="geometry"/>
                </mxCell>
                <mxCell id="3" value="DÃ‰BUT" style="ellipse;whiteSpace=wrap;html=1;" vertex="1" parent="1">
                    <mxGeometry x="340" y="40" width="120" height="40" as="geometry"/>
                </mxCell>
                <mxCell id="19" style="edgeStyle=none;html=1;exitX=0.5;exitY=1;exitDx=0;exitDy=0;" edge="1" parent="1" source="4" target="5">
                    <mxGeometry relative="1" as="geometry"/>
                </mxCell>
                <mxCell id="4" value="AFFICHER &quot;Entrez le sigle du cours:&quot;" style="shape=parallelogram;perimeter=parallelogramPerimeter;whiteSpace=wrap;html=1;fixedSize=1;" vertex="1" parent="1">
                    <mxGeometry x="260" y="120" width="280" height="40" as="geometry"/>
                </mxCell>
                <mxCell id="16" style="edgeStyle=none;html=1;exitX=0.5;exitY=1;exitDx=0;exitDy=0;entryX=0.5;entryY=0;entryDx=0;entryDy=0;" edge="1" parent="1" source="5" target="6">
                    <mxGeometry relative="1" as="geometry"/>
                </mxCell>
                <mxCell id="5" value="LIRE sigle" style="shape=parallelogram;perimeter=parallelogramPerimeter;whiteSpace=wrap;html=1;fixedSize=1;" vertex="1" parent="1">
                    <mxGeometry x="335" y="200" width="130" height="40" as="geometry"/>
                </mxCell>
                <mxCell id="12" style="edgeStyle=none;html=1;exitX=1;exitY=0.5;exitDx=0;exitDy=0;entryX=0.5;entryY=0;entryDx=0;entryDy=0;" edge="1" parent="1" source="6" target="9">
                    <mxGeometry relative="1" as="geometry">
                        <Array as="points">
                            <mxPoint x="640" y="320"/>
                        </Array>
                    </mxGeometry>
                </mxCell>
                <mxCell id="13" value="VRAI" style="edgeLabel;html=1;align=center;verticalAlign=middle;resizable=0;points=[];" vertex="1" connectable="0" parent="12">
                    <mxGeometry x="-0.3931" relative="1" as="geometry">
                        <mxPoint as="offset"/>
                    </mxGeometry>
                </mxCell>
                <mxCell id="14" style="edgeStyle=none;html=1;exitX=0;exitY=0.5;exitDx=0;exitDy=0;entryX=0.5;entryY=0;entryDx=0;entryDy=0;" edge="1" parent="1" source="6" target="10">
                    <mxGeometry relative="1" as="geometry">
                        <Array as="points">
                            <mxPoint x="165" y="320"/>
                        </Array>
                    </mxGeometry>
                </mxCell>
                <mxCell id="15" value="FAUX" style="edgeLabel;html=1;align=center;verticalAlign=middle;resizable=0;points=[];" vertex="1" connectable="0" parent="14">
                    <mxGeometry x="-0.2399" relative="1" as="geometry">
                        <mxPoint as="offset"/>
                    </mxGeometry>
                </mxCell>
                <mxCell id="6" value="sigle = &quot;420-SN1-RE&quot;" style="rhombus;whiteSpace=wrap;html=1;" vertex="1" parent="1">
                    <mxGeometry x="327.5" y="280" width="145" height="80" as="geometry"/>
                </mxCell>
                <mxCell id="11" style="edgeStyle=none;html=1;exitX=0.5;exitY=1;exitDx=0;exitDy=0;entryX=1;entryY=0.5;entryDx=0;entryDy=0;" edge="1" parent="1" source="9" target="2">
                    <mxGeometry relative="1" as="geometry">
                        <Array as="points">
                            <mxPoint x="640" y="540"/>
                        </Array>
                    </mxGeometry>
                </mxCell>
                <mxCell id="9" value="AFFICHER &quot;Bienvenue au cours de Python&quot;" style="shape=parallelogram;perimeter=parallelogramPerimeter;whiteSpace=wrap;html=1;fixedSize=1;" vertex="1" parent="1">
                    <mxGeometry x="500" y="400" width="280" height="60" as="geometry"/>
                </mxCell>
                <mxCell id="20" style="edgeStyle=none;html=1;exitX=0;exitY=0.5;exitDx=0;exitDy=0;entryX=0;entryY=0.25;entryDx=0;entryDy=0;" edge="1" parent="1" source="10" target="4">
                    <mxGeometry relative="1" as="geometry">
                        <Array as="points">
                            <mxPoint x="20" y="130"/>
                        </Array>
                    </mxGeometry>
                </mxCell>
                <mxCell id="10" value="AFFICHER &quot;Mauvais cours. Veuillez rÃ©essayer.&quot;" style="shape=parallelogram;perimeter=parallelogramPerimeter;whiteSpace=wrap;html=1;fixedSize=1;" vertex="1" parent="1">
                    <mxGeometry x="10" y="400" width="310" height="60" as="geometry"/>
                </mxCell>
            </root>
        </mxGraphModel>
    </diagram>
</mxfile>